<?xml version="1.0" encoding="UTF-8"?>
<!DOCTYPE svg PUBLIC "-//W3C//DTD SVG 1.1//EN" "http://www.w3.org/Graphics/SVG/1.1/DTD/svg11.dtd">
<svg xmlns="http://www.w3.org/2000/svg" version="1.1" width="169px" height="217px" style="shape-rendering:geometricPrecision; text-rendering:geometricPrecision; image-rendering:optimizeQuality; fill-rule:evenodd; clip-rule:evenodd" xmlns:xlink="http://www.w3.org/1999/xlink">
<g><path style="opacity:0.999" fill="#e1342e" d="M 92.5,4.5 C 104.922,5.66776 115.922,10.0011 125.5,17.5C 130.352,21.7684 135.019,26.2684 139.5,31C 140.448,31.4828 141.448,31.6495 142.5,31.5C 142.389,32.1174 142.056,32.6174 141.5,33C 144.997,36.7566 148.33,40.59 151.5,44.5C 156.947,52.2998 160.78,60.9665 163,70.5C 164.111,84.4617 164.611,98.4617 164.5,112.5C 164.333,124.5 164.167,136.5 164,148.5C 161.022,152.988 156.855,154.655 151.5,153.5C 151.217,152.711 150.717,152.044 150,151.5C 149.667,133.833 149.333,116.167 149,98.5C 148.722,97.5842 148.222,96.9175 147.5,96.5C 147.662,94.4727 147.495,92.4727 147,90.5C 143.656,83.9676 140.489,77.301 137.5,70.5C 136.5,70.5 135.5,70.5 134.5,70.5C 132.849,67.2276 130.683,64.2276 128,61.5C 115.272,51.5612 100.772,46.2278 84.5,45.5C 84.8227,32.2539 84.4894,19.0872 83.5,6C 86.5867,5.74105 89.5867,5.24105 92.5,4.5 Z"/></g>
<g><path style="opacity:0.999" fill="#ef4c39" d="M 92.5,4.5 C 89.5867,5.24105 86.5867,5.74105 83.5,6C 84.4894,19.0872 84.8227,32.2539 84.5,45.5C 80.4454,45.8242 76.4454,45.4909 72.5,44.5C 72.0576,43.2613 71.3909,42.2613 70.5,41.5C 70.3335,30.1618 70.5001,18.8284 71,7.5C 72.5,6 74,4.5 75.5,3C 80.1667,2.33333 84.8333,2.33333 89.5,3C 90.7375,3.23209 91.7375,3.73209 92.5,4.5 Z"/></g>
<g><path style="opacity:0.533" fill="#e5625d" d="M 125.5,17.5 C 132.336,20.6622 138.003,25.3288 142.5,31.5C 141.448,31.6495 140.448,31.4828 139.5,31C 135.019,26.2684 130.352,21.7684 125.5,17.5 Z"/></g>
<g><path style="opacity:0.637" fill="#e5605b" d="M 142.5,31.5 C 146.703,35.0305 149.703,39.3638 151.5,44.5C 148.33,40.59 144.997,36.7566 141.5,33C 142.056,32.6174 142.389,32.1174 142.5,31.5 Z"/></g>
<g><path style="opacity:0.997" fill="#f4871f" d="M 70.5,41.5 C 71.3909,42.2613 72.0576,43.2613 72.5,44.5C 76.4454,45.4909 80.4454,45.8242 84.5,45.5C 100.772,46.2278 115.272,51.5612 128,61.5C 130.683,64.2276 132.849,67.2276 134.5,70.5C 135.5,70.5 136.5,70.5 137.5,70.5C 140.489,77.301 143.656,83.9676 147,90.5C 147.495,92.4727 147.662,94.4727 147.5,96.5C 148.296,115.469 148.796,134.469 149,153.5C 149.383,154.056 149.883,154.389 150.5,154.5C 150.215,159.897 150.549,165.23 151.5,170.5C 156.531,171.26 160.698,173.593 164,177.5C 164.667,179.5 164.667,181.5 164,183.5C 163.578,185.426 162.411,186.426 160.5,186.5C 148.783,186.791 137.116,186.458 125.5,185.5C 124.883,185.389 124.383,185.056 124,184.5C 123.667,179.5 123.333,174.5 123,169.5C 121.89,167.963 120.39,167.297 118.5,167.5C 117.458,166.209 116.292,166.209 115,167.5C 114.5,153.171 114.333,138.837 114.5,124.5C 129.983,125.339 136.316,118.006 133.5,102.5C 131.23,100.025 128.563,98.0252 125.5,96.5C 86.4332,95.8276 47.4332,95.1609 8.5,94.5C 18.0508,63.9354 38.7175,47.6021 70.5,45.5C 70.5,44.1667 70.5,42.8333 70.5,41.5 Z"/></g>
<g><path style="opacity:1" fill="#f8bd1b" d="M 8.5,94.5 C 47.4332,95.1609 86.4332,95.8276 125.5,96.5C 128.563,98.0252 131.23,100.025 133.5,102.5C 136.316,118.006 129.983,125.339 114.5,124.5C 114.333,138.837 114.5,153.171 115,167.5C 116.292,166.209 117.458,166.209 118.5,167.5C 117.25,167.577 116.417,168.244 116,169.5C 115.501,175.491 115.334,181.491 115.5,187.5C 113.126,190.252 112.459,193.252 113.5,196.5C 109.701,206.635 102.701,213.302 92.5,216.5C 91.8333,216.5 91.1667,216.5 90.5,216.5C 82.4319,215.82 74.2652,215.153 66,214.5C 65.6012,214.728 65.4346,215.062 65.5,215.5C 64.8826,215.389 64.3826,215.056 64,214.5C 63.5003,206.173 63.3336,197.84 63.5,189.5C 64.478,177.914 64.8113,166.247 64.5,154.5C 65.1667,153.833 65.8333,153.167 66.5,152.5C 74.84,152.666 83.1733,152.5 91.5,152C 92.056,151.617 92.3893,151.117 92.5,150.5C 92.5,141.833 92.5,133.167 92.5,124.5C 81.8333,124.5 71.1667,124.5 60.5,124.5C 58.326,124.75 56.6594,125.75 55.5,127.5C 53.0646,128.27 51.7313,129.937 51.5,132.5C 50.8826,132.611 50.3826,132.944 50,133.5C 49.8103,144.243 49.3103,154.91 48.5,165.5C 42.3554,166.49 36.0221,166.823 29.5,166.5C 28.8958,154.85 28.2292,143.184 27.5,131.5C 23.0551,125.434 17.0551,123.101 9.5,124.5C 8.88258,124.611 8.38258,124.944 8,125.5C 7.17678,134.01 7.34345,142.344 8.5,150.5C 10.5652,150.953 12.2318,151.953 13.5,153.5C 13.6666,173.836 13.5,194.169 13,214.5C 12.0053,215.066 11.172,215.733 10.5,216.5C 9.16667,216.5 7.83333,216.5 6.5,216.5C 3.94731,214.403 1.61398,212.07 -0.5,209.5C -0.5,172.833 -0.5,136.167 -0.5,99.5C 1.7793,96.5578 4.7793,94.8911 8.5,94.5 Z"/></g>
<g><path style="opacity:1" fill="#f58a1d" d="M 118.5,102.5 C 122.639,101.704 125.805,103.037 128,106.5C 129.292,110.627 128.125,113.794 124.5,116C 121.469,116.495 118.469,116.329 115.5,115.5C 113.597,110.327 114.597,105.994 118.5,102.5 Z"/></g>
<g><path style="opacity:1" fill="#ed6926" d="M 147.5,96.5 C 148.222,96.9175 148.722,97.5842 149,98.5C 149.333,116.167 149.667,133.833 150,151.5C 150.717,152.044 151.217,152.711 151.5,153.5C 150.833,153.5 150.5,153.833 150.5,154.5C 149.883,154.389 149.383,154.056 149,153.5C 148.796,134.469 148.296,115.469 147.5,96.5 Z"/></g>
<g><path style="opacity:1" fill="#463c4a" d="M 9.5,124.5 C 17.0551,123.101 23.0551,125.434 27.5,131.5C 28.2292,143.184 28.8958,154.85 29.5,166.5C 36.0221,166.823 42.3554,166.49 48.5,165.5C 50.2147,154.836 51.2147,143.836 51.5,132.5C 51.7313,129.937 53.0646,128.27 55.5,127.5C 57.8477,127.408 59.5144,126.408 60.5,124.5C 71.1667,124.5 81.8333,124.5 92.5,124.5C 92.5,133.167 92.5,141.833 92.5,150.5C 83.7031,151.112 75.0364,151.779 66.5,152.5C 65.8333,153.167 65.1667,153.833 64.5,154.5C 63.5056,164.987 63.1722,175.654 63.5,186.5C 47.5,186.5 31.5,186.5 15.5,186.5C 16.1436,175.116 15.477,164.116 13.5,153.5C 12.2318,151.953 10.5652,150.953 8.5,150.5C 8.22457,141.779 8.5579,133.113 9.5,124.5 Z"/></g>
<g><path style="opacity:1" fill="#765e3e" d="M 60.5,124.5 C 59.5144,126.408 57.8477,127.408 55.5,127.5C 56.6594,125.75 58.326,124.75 60.5,124.5 Z"/></g>
<g><path style="opacity:1" fill="#917235" d="M 9.5,124.5 C 8.5579,133.113 8.22457,141.779 8.5,150.5C 7.34345,142.344 7.17678,134.01 8,125.5C 8.38258,124.944 8.88258,124.611 9.5,124.5 Z"/></g>
<g><path style="opacity:1" fill="#ba902b" d="M 51.5,132.5 C 51.2147,143.836 50.2147,154.836 48.5,165.5C 49.3103,154.91 49.8103,144.243 50,133.5C 50.3826,132.944 50.8826,132.611 51.5,132.5 Z"/></g>
<g><path style="opacity:1" fill="#8b6e37" d="M 92.5,150.5 C 92.3893,151.117 92.056,151.617 91.5,152C 83.1733,152.5 74.84,152.666 66.5,152.5C 75.0364,151.779 83.7031,151.112 92.5,150.5 Z"/></g>
<g><path style="opacity:1" fill="#6b5846" d="M 64.5,154.5 C 64.8113,166.247 64.478,177.914 63.5,189.5C 63.1667,189.5 62.8333,189.5 62.5,189.5C 62.5569,188.391 62.8902,187.391 63.5,186.5C 63.1722,175.654 63.5056,164.987 64.5,154.5 Z"/></g>
<g><path style="opacity:0.667" fill="#78727d" d="M 15.5,186.5 C 31.5,186.5 47.5,186.5 63.5,186.5C 62.8902,187.391 62.5569,188.391 62.5,189.5C 47.5,189.5 32.5,189.5 17.5,189.5C 16.4489,188.778 15.7822,187.778 15.5,186.5 Z"/></g>
<g><path style="opacity:0.671" fill="#f5a75d" d="M 125.5,185.5 C 137.116,186.458 148.783,186.791 160.5,186.5C 159.942,187.79 158.942,188.623 157.5,189C 147.833,189.667 138.167,189.667 128.5,189C 127.29,187.961 126.29,186.794 125.5,185.5 Z"/></g>
<g><path style="opacity:0.258" fill="#e1b43e" d="M 13.5,153.5 C 15.477,164.116 16.1436,175.116 15.5,186.5C 15.7822,187.778 16.4489,188.778 17.5,189.5C 16.6706,197.657 16.1706,205.99 16,214.5C 15.0053,215.066 14.172,215.733 13.5,216.5C 12.5,216.5 11.5,216.5 10.5,216.5C 11.172,215.733 12.0053,215.066 13,214.5C 13.5,194.169 13.6666,173.836 13.5,153.5 Z"/></g>
<g><path style="opacity:0.714" fill="#f8da7d" d="M 115.5,187.5 C 115.935,190.838 115.268,193.838 113.5,196.5C 112.459,193.252 113.126,190.252 115.5,187.5 Z"/></g>
<g><path style="opacity:1" fill="#f6dc90" d="M 90.5,216.5 C 82.1667,216.5 73.8333,216.5 65.5,216.5C 65.5,216.167 65.5,215.833 65.5,215.5C 65.4346,215.062 65.6012,214.728 66,214.5C 74.2652,215.153 82.4319,215.82 90.5,216.5 Z"/></g>
</svg>
