<?xml version="1.0" encoding="UTF-8"?>
<!DOCTYPE svg PUBLIC "-//W3C//DTD SVG 1.1//EN" "http://www.w3.org/Graphics/SVG/1.1/DTD/svg11.dtd">
<svg xmlns="http://www.w3.org/2000/svg" version="1.1" width="239px" height="211px" style="shape-rendering:geometricPrecision; text-rendering:geometricPrecision; image-rendering:optimizeQuality; fill-rule:evenodd; clip-rule:evenodd" xmlns:xlink="http://www.w3.org/1999/xlink">
<g><path style="opacity:0.966" fill="#eb0023" d="M 124.5,-0.5 C 126.833,-0.5 129.167,-0.5 131.5,-0.5C 163.266,7.73425 195.1,16.0676 227,24.5C 227.667,68.1667 227.667,111.833 227,155.5C 213.336,157.5 199.669,159.5 186,161.5C 185.667,161.167 185.333,160.833 185,160.5C 179.274,129.812 173.441,99.1453 167.5,68.5C 164.526,68.854 162.526,70.354 161.5,73C 164.64,102.804 167.14,132.637 169,162.5C 155.569,164.784 142.069,166.784 128.5,168.5C 127.914,168.291 127.414,167.957 127,167.5C 121.817,139.416 116.317,111.416 110.5,83.5C 106.609,84.6339 104.943,87.3006 105.5,91.5C 108.102,117.502 110.269,143.502 112,169.5C 98.3556,171.664 84.689,173.664 71,175.5C 65.1003,150.111 60.267,124.445 56.5,98.5C 52.8453,98.4806 50.512,100.147 49.5,103.5C 52.3383,128.092 54.3383,152.592 55.5,177C 47.5563,178.612 39.5563,179.279 31.5,179C 31,178.5 30.5,178 30,177.5C 20.1178,139.296 9.95109,101.296 -0.5,63.5C -0.5,61.5 -0.5,59.5 -0.5,57.5C 41.3556,38.4032 83.0223,19.0698 124.5,-0.5 Z"/></g>
<g><path style="opacity:0.916" fill="#eb0023" d="M 227.5,207.5 C 226.26,208.659 224.926,209.659 223.5,210.5C 222.167,210.5 220.833,210.5 219.5,210.5C 190.317,205.246 160.984,200.079 131.5,195C 129.837,190.716 129.504,186.383 130.5,182C 162.462,177.671 194.462,174.004 226.5,171C 227.488,183.086 227.822,195.253 227.5,207.5 Z"/></g>
<g><path style="opacity:0.716" fill="#ec3749" d="M 227.5,207.5 C 227.5,208.5 227.5,209.5 227.5,210.5C 226.167,210.5 224.833,210.5 223.5,210.5C 224.926,209.659 226.26,208.659 227.5,207.5 Z"/></g>
</svg>
